HIERARCHY
ROOT Hips
{
	OFFSET 0.000000 71.427986 0.000000
	CHANNELS 6 Xposition Yposition Zposition Xrotation Yrotation Zrotation
	JOINT Pelvis
	{
		OFFSET 0.000000 0.000000 0.000000
		CHANNELS 3 Xrotation Yrotation Zrotation
		JOINT LeftUpLeg
		{
			OFFSET 6.797100 -2.508499 -1.318700
			CHANNELS 3 Xrotation Yrotation Zrotation
			JOINT LeftLeg
			{
				OFFSET 0.069008 -29.241863 0.690200
				CHANNELS 3 Xrotation Yrotation Zrotation
				JOINT LeftFoot
				{
					OFFSET -0.069008 -29.568123 -0.266800
					CHANNELS 3 Xrotation Yrotation Zrotation
					JOINT LeftToeBase
					{
						OFFSET 3.145500 -8.631000 16.059900
						CHANNELS 3 Xrotation Yrotation Zrotation
						End Site
						{
							OFFSET 0.000000 18.501587 0.000000
						}
					}
				}
			}
			JOINT Left_ShortSleeve
			{
				OFFSET 0.265923 -10.480953 1.153800
				CHANNELS 3 Xrotation Yrotation Zrotation
				End Site
				{
					OFFSET 1.725763 19.823879 0.000000
				}
			}
		}
		JOINT RightUpLeg
		{
			OFFSET -6.797100 -2.508499 -1.318700
			CHANNELS 3 Xrotation Yrotation Zrotation
			JOINT RightLeg
			{
				OFFSET -0.082453 -29.241932 0.688000
				CHANNELS 3 Xrotation Yrotation Zrotation
				JOINT RightFoot
				{
					OFFSET 0.082453 -29.568058 -0.264600
					CHANNELS 3 Xrotation Yrotation Zrotation
					JOINT RightToeBase
					{
						OFFSET -3.115300 -8.682800 16.113400
						CHANNELS 3 Xrotation Yrotation Zrotation
						End Site
						{
							OFFSET 0.000000 18.567114 0.000000
						}
					}
				}
			}
			JOINT Right_ShortSleeve
			{
				OFFSET -0.265923 -10.480953 1.153800
				CHANNELS 3 Xrotation Yrotation Zrotation
				End Site
				{
					OFFSET -1.725766 19.823910 0.000000
				}
			}
		}
	}
	JOINT Spine
	{
		OFFSET 0.000000 13.368103 0.470500
		CHANNELS 3 Xrotation Yrotation Zrotation
		JOINT Spine1
		{
			OFFSET 0.147000 13.837402 0.538800
			CHANNELS 3 Xrotation Yrotation Zrotation
			JOINT Spine2
			{
				OFFSET 0.168000 16.242897 -1.435500
				CHANNELS 3 Xrotation Yrotation Zrotation
				JOINT Neck
				{
					OFFSET 0.217200 18.631500 -1.679100
					CHANNELS 3 Xrotation Yrotation Zrotation
					JOINT Head
					{
						OFFSET 0.000000 6.599396 1.385900
						CHANNELS 3 Xrotation Yrotation Zrotation
						JOINT Hat
						{
							OFFSET -0.532200 27.220596 -10.096100
							CHANNELS 3 Xrotation Yrotation Zrotation
							End Site
							{
								OFFSET 0.000000 22.029861 0.000000
							}
						}
						JOINT HairD
						{
							OFFSET -10.777400 17.437393 -1.325900
							CHANNELS 3 Xrotation Yrotation Zrotation
							JOINT HairD1
							{
								OFFSET -3.290299 -11.051193 1.062200
								CHANNELS 3 Xrotation Yrotation Zrotation
								End Site
								{
									OFFSET 0.000000 11.579437 0.000000
								}
							}
						}
						JOINT HairB
						{
							OFFSET -10.777400 17.437393 1.467900
							CHANNELS 3 Xrotation Yrotation Zrotation
							JOINT HairB1
							{
								OFFSET -1.561200 -12.956299 3.590200
								CHANNELS 3 Xrotation Yrotation Zrotation
								End Site
								{
									OFFSET 0.000000 13.534866 0.000000
								}
							}
						}
						JOINT HairA
						{
							OFFSET 9.713100 17.437393 1.467900
							CHANNELS 3 Xrotation Yrotation Zrotation
							JOINT HairA1
							{
								OFFSET 1.561200 -12.956299 3.590200
								CHANNELS 3 Xrotation Yrotation Zrotation
								End Site
								{
									OFFSET 0.000000 13.534866 0.000000
								}
							}
						}
						JOINT HairC
						{
							OFFSET 9.713100 17.437393 -1.325900
							CHANNELS 3 Xrotation Yrotation Zrotation
							JOINT HairC1
							{
								OFFSET 3.290300 -11.051193 1.062200
								CHANNELS 3 Xrotation Yrotation Zrotation
								End Site
								{
									OFFSET 0.000000 11.579437 0.000000
								}
							}
						}
					}
				}
				JOINT LeftShoulder
				{
					OFFSET 5.101800 15.108002 -2.763700
					CHANNELS 3 Xrotation Yrotation Zrotation
					JOINT LeftArm
					{
						OFFSET 9.825497 2.506317 -1.597400
						CHANNELS 3 Xrotation Yrotation Zrotation
						JOINT LeftForeArm
						{
							OFFSET 21.966244 0.000000 0.000000
							CHANNELS 3 Xrotation Yrotation Zrotation
							JOINT LeftHand
							{
								OFFSET 33.879036 0.000000 0.000000
								CHANNELS 3 Xrotation Yrotation Zrotation
								JOINT LeftHandThumb1
								{
									OFFSET 6.715286 -2.359680 3.363841
									CHANNELS 3 Xrotation Yrotation Zrotation
									JOINT LeftHandThumb2
									{
										OFFSET 2.507072 -1.447464 1.447461
										CHANNELS 3 Xrotation Yrotation Zrotation
										JOINT LeftHandThumb3
										{
											OFFSET 2.898338 -1.673355 1.673357
											CHANNELS 3 Xrotation Yrotation Zrotation
											End Site
											{
												OFFSET -0.295959 3.727692 -0.131651
											}
										}
									}
								}
								JOINT LeftHandIndex1
								{
									OFFSET 14.190811 -0.254547 3.840278
									CHANNELS 3 Xrotation Yrotation Zrotation
									JOINT LeftHandIndex2
									{
										OFFSET 3.551727 0.000000 -0.000000
										CHANNELS 3 Xrotation Yrotation Zrotation
										JOINT LeftHandIndex3
										{
											OFFSET 2.894196 0.000000 0.000000
											CHANNELS 3 Xrotation Yrotation Zrotation
											End Site
											{
												OFFSET -1.000603 2.690872 0.366626
											}
										}
									}
								}
								JOINT LeftHandMiddle1
								{
									OFFSET 13.776489 0.000000 0.000000
									CHANNELS 3 Xrotation Yrotation Zrotation
									JOINT LeftHandMiddle2
									{
										OFFSET 3.438232 0.000000 0.000000
										CHANNELS 3 Xrotation Yrotation Zrotation
										JOINT LeftHandMiddle3
										{
											OFFSET 3.691551 0.000000 0.000000
											CHANNELS 3 Xrotation Yrotation Zrotation
											End Site
											{
												OFFSET -1.082298 3.499527 0.457670
											}
										}
									}
								}
								JOINT LeftHandRing1
								{
									OFFSET 13.966164 -0.268127 -3.067488
									CHANNELS 3 Xrotation Yrotation Zrotation
									JOINT LeftHandRing2
									{
										OFFSET 3.162567 0.000000 0.000000
										CHANNELS 3 Xrotation Yrotation Zrotation
										JOINT LeftHandRing3
										{
											OFFSET 3.324348 0.000000 0.000000
											CHANNELS 3 Xrotation Yrotation Zrotation
											End Site
											{
												OFFSET -0.861900 3.184998 0.405154
											}
										}
									}
								}
								JOINT LeftHandPinky1
								{
									OFFSET 13.131393 -0.168503 -5.746925
									CHANNELS 3 Xrotation Yrotation Zrotation
									JOINT LeftHandPinky2
									{
										OFFSET 2.849182 0.000000 0.000000
										CHANNELS 3 Xrotation Yrotation Zrotation
										JOINT LeftHandPinky3
										{
											OFFSET 2.805038 0.000000 0.000000
											CHANNELS 3 Xrotation Yrotation Zrotation
											End Site
											{
												OFFSET -0.882500 2.642609 0.325652
											}
										}
									}
								}
							}
							JOINT Left_Sleeve
							{
								OFFSET 6.592125 -0.646545 0.805568
								CHANNELS 3 Xrotation Yrotation Zrotation
								End Site
								{
									OFFSET -0.000179 20.275787 -0.000000
								}
							}
						}
					}
				}
				JOINT RightShoulder
				{
					OFFSET -5.731700 15.108002 -2.763700
					CHANNELS 3 Xrotation Yrotation Zrotation
					JOINT RightArm
					{
						OFFSET -9.825497 2.506317 -1.597400
						CHANNELS 3 Xrotation Yrotation Zrotation
						JOINT RightForeArm
						{
							OFFSET -21.966242 0.000000 0.000000
							CHANNELS 3 Xrotation Yrotation Zrotation
							JOINT RightHand
							{
								OFFSET -33.879032 0.000000 0.000000
								CHANNELS 3 Xrotation Yrotation Zrotation
								JOINT RightHandThumb1
								{
									OFFSET -6.715286 -2.359680 3.363841
									CHANNELS 3 Xrotation Yrotation Zrotation
									JOINT RightHandThumb2
									{
										OFFSET -2.507072 -1.447464 1.447461
										CHANNELS 3 Xrotation Yrotation Zrotation
										JOINT RightHandThumb3
										{
											OFFSET -2.898338 -1.673355 1.673357
											CHANNELS 3 Xrotation Yrotation Zrotation
											End Site
											{
												OFFSET 0.295959 3.727692 -0.131651
											}
										}
									}
								}
								JOINT RightHandIndex1
								{
									OFFSET -14.190811 -0.254547 3.840278
									CHANNELS 3 Xrotation Yrotation Zrotation
									JOINT RightHandIndex2
									{
										OFFSET -3.551727 0.000000 -0.000000
										CHANNELS 3 Xrotation Yrotation Zrotation
										JOINT RightHandIndex3
										{
											OFFSET -2.894196 0.000000 0.000000
											CHANNELS 3 Xrotation Yrotation Zrotation
											End Site
											{
												OFFSET 1.000603 2.690872 0.366626
											}
										}
									}
								}
								JOINT RightHandMiddle1
								{
									OFFSET -13.776489 0.000000 0.000000
									CHANNELS 3 Xrotation Yrotation Zrotation
									JOINT RightHandMiddle2
									{
										OFFSET -3.438232 0.000000 0.000000
										CHANNELS 3 Xrotation Yrotation Zrotation
										JOINT RightHandMiddle3
										{
											OFFSET -3.691551 0.000000 0.000000
											CHANNELS 3 Xrotation Yrotation Zrotation
											End Site
											{
												OFFSET 1.082298 3.499527 0.457670
											}
										}
									}
								}
								JOINT RightHandRing1
								{
									OFFSET -13.966164 -0.268127 -3.067488
									CHANNELS 3 Xrotation Yrotation Zrotation
									JOINT RightHandRing2
									{
										OFFSET -3.162567 0.000000 0.000000
										CHANNELS 3 Xrotation Yrotation Zrotation
										JOINT RightHandRing3
										{
											OFFSET -3.324348 0.000000 0.000000
											CHANNELS 3 Xrotation Yrotation Zrotation
											End Site
											{
												OFFSET 0.861900 3.184998 0.405154
											}
										}
									}
								}
								JOINT RightHandPinky1
								{
									OFFSET -13.131393 -0.168503 -5.746925
									CHANNELS 3 Xrotation Yrotation Zrotation
									JOINT RightHandPinky2
									{
										OFFSET -2.849182 0.000000 0.000000
										CHANNELS 3 Xrotation Yrotation Zrotation
										JOINT RightHandPinky3
										{
											OFFSET -2.805038 0.000000 0.000000
											CHANNELS 3 Xrotation Yrotation Zrotation
											End Site
											{
												OFFSET 0.882500 2.642609 0.325652
											}
										}
									}
								}
							}
							JOINT Right_Sleeve
							{
								OFFSET -6.592125 -0.646545 0.805568
								CHANNELS 3 Xrotation Yrotation Zrotation
								End Site
								{
									OFFSET 0.000179 20.275787 -0.000000
								}
							}
						}
					}
				}
				JOINT Bind_Right_JacketString
				{
					OFFSET -3.534800 11.969597 7.200700
					CHANNELS 3 Xrotation Yrotation Zrotation
					JOINT Bind_Right_JacketString1
					{
						OFFSET -0.319900 -6.102600 2.794100
						CHANNELS 3 Xrotation Yrotation Zrotation
						End Site
						{
							OFFSET 0.000000 6.719452 0.000000
						}
					}
				}
				JOINT Bind_Left_JacketString
				{
					OFFSET 2.904800 11.969597 7.200700
					CHANNELS 3 Xrotation Yrotation Zrotation
					JOINT Bind_Left_JacketString1
					{
						OFFSET 0.364800 -5.904503 3.186800
						CHANNELS 3 Xrotation Yrotation Zrotation
						End Site
						{
							OFFSET 0.000000 6.719513 0.000000
						}
					}
				}
				JOINT HairE
				{
					OFFSET 5.915200 17.612701 -11.592200
					CHANNELS 3 Xrotation Yrotation Zrotation
					JOINT HairE1
					{
						OFFSET 0.289200 -7.171898 -1.284500
						CHANNELS 3 Xrotation Yrotation Zrotation
						End Site
						{
							OFFSET 0.000000 7.291756 0.000000
						}
					}
				}
				JOINT HairF
				{
					OFFSET -0.864800 17.612701 -11.592200
					CHANNELS 3 Xrotation Yrotation Zrotation
					JOINT HairF1
					{
						OFFSET 0.000000 -14.087097 -2.127501
						CHANNELS 3 Xrotation Yrotation Zrotation
						End Site
						{
							OFFSET 0.000000 14.246841 0.000000
						}
					}
				}
				JOINT HairG
				{
					OFFSET -8.087700 17.612701 -11.592200
					CHANNELS 3 Xrotation Yrotation Zrotation
					JOINT HairG1
					{
						OFFSET -0.293600 -6.081398 -0.910100
						CHANNELS 3 Xrotation Yrotation Zrotation
						End Site
						{
							OFFSET 0.000000 6.156120 0.000000
						}
					}
				}
			}
		}
	}
	JOINT Pouch
	{
		OFFSET 0.000000 4.394501 10.847300
		CHANNELS 3 Xrotation Yrotation Zrotation
		End Site
		{
			OFFSET 0.000000 21.880577 0.000000
		}
	}
	JOINT Bag
	{
		OFFSET -13.229000 4.813004 -0.593300
		CHANNELS 3 Xrotation Yrotation Zrotation
		End Site
		{
			OFFSET 0.000000 21.880577 0.000000
		}
	}
	JOINT OccupyGuyFacialAnim_Joint
	{
		OFFSET 1.000000 -70.206398 -1.655000
		CHANNELS 3 Xrotation Yrotation Zrotation
		End Site
		{
			OFFSET 0.000000 21.880577 0.000000
		}
	}
}
MOTION
Frames: 5
Frame Time: 0.016667
-0.035184 70.332886 0.122326 2.912483 -28.986165 1.187764 -0.000000 0.000002 -0.000000 -14.993517 18.711510 9.352067 17.130084 13.218426 -0.903860 -4.456806 -4.009296 -5.083995 0.000000 -0.000000 -0.000000 -0.000000 0.000000 0.000000 -5.461751 -1.938501 -9.246517 10.920459 9.735857 0.827926 -8.844403 -1.017084 7.077277 0.000000 -0.000001 0.000000 0.000000 0.000000 -0.000001 7.836054 -0.365437 -2.679455 1.099251 -0.880569 2.383464 1.108681 -0.590455 2.446366 -3.842068 18.019053 -6.496394 -6.332478 13.021551 0.301483 0.000000 0.000000 -0.000000 0.000000 0.000000 -0.000000 0.000000 0.000000 -0.000000 0.000000 0.000000 -0.000000 -0.000000 0.000000 -0.000000 0.000000 0.000000 -0.000000 -0.000000 0.000000 -0.000000 0.000000 0.000000 -0.000000 0.000000 0.000000 -0.000000 -0.057392 -8.759438 -0.061013 -55.249769 0.330138 -41.449925 11.586065 -65.829507 13.007275 -50.191167 12.353351 4.611940 17.542497 -5.723938 -12.930210 10.850484 26.127728 8.644813 -0.000000 -0.000000 -0.000001 13.974943 1.202208 -55.004333 0.370818 1.161717 -65.441880 0.000001 0.000002 -0.000002 7.504739 1.174503 -63.778496 1.807849 1.475670 -64.567916 0.000000 -0.000000 0.000001 8.574315 2.179113 -75.148999 -0.207620 1.009270 -57.855063 -0.000001 0.000002 -0.000001 10.030109 13.637072 -84.750237 0.877104 0.062323 -64.595503 -0.000000 -0.000001 0.000003 0.000001 -0.000000 -0.000001 4.849290 7.760148 5.560449 -0.933508 -2.176869 61.845649 11.299282 18.943436 -3.987513 -0.459217 6.620149 5.830118 15.788505 -2.734485 -17.205882 -2.198316 -31.113550 7.361267 -0.000000 -0.000002 -0.000000 2.374667 -3.640939 8.487424 -2.147348 -2.473142 18.673298 0.000001 -0.000000 0.000002 -1.990497 -5.687067 13.662141 0.282188 -5.088229 26.988304 -0.000001 -0.000000 -0.000003 -3.248693 -8.544114 11.772720 4.043115 -4.063252 33.263646 0.000000 0.000001 -0.000004 -6.473322 -11.333585 23.262793 10.715339 -2.558937 34.822866 -0.000002 0.000000 0.000001 -0.000001 -0.000000 0.000003 0.000001 -0.000003 0.000000 0.000001 -0.000001 0.000000 0.000001 -0.000003 0.000000 0.000001 -0.000003 0.000000 0.000001 -0.000003 0.000000 0.000001 -0.000001 0.000000 0.000001 -0.000003 0.000000 0.000001 -0.000003 0.000000 0.000001 -0.000003 0.000000 0.000001 -0.000001 0.000000 -0.000000 0.000002 -0.000000 -0.000000 0.000002 -0.000000 -0.000000 0.000002 -0.000000 
0.025706 70.305305 0.034158 2.958121 -28.857911 1.161507 -0.000000 0.000003 -0.000000 -15.361249 18.690353 9.427007 17.472204 13.776707 -0.862944 -4.527916 -4.711777 -5.104717 0.000000 -0.000000 0.000000 -0.000001 -0.000000 -0.000000 -5.745942 -1.933029 -9.191336 11.287797 9.534487 0.788047 -8.968370 -1.010552 7.066881 0.000000 -0.000001 -0.000000 0.000001 0.000003 0.000001 7.802467 -0.364006 -2.678383 1.074049 -0.871347 2.364664 1.083490 -0.588033 2.427852 -3.746777 18.050067 -6.586955 -6.429086 13.000712 0.448108 -0.000000 -0.000000 -0.000000 -0.000000 -0.000000 -0.000000 -0.000000 -0.000000 -0.000000 -0.000000 -0.000000 -0.000000 -0.000000 -0.000000 -0.000000 -0.000000 -0.000000 -0.000000 -0.000000 -0.000000 -0.000000 -0.000000 -0.000000 -0.000000 -0.000000 -0.000000 -0.000000 -0.004174 -8.315557 -0.161325 -55.335256 0.717917 -41.094830 10.897118 -65.775425 12.310779 -50.186154 12.360843 4.470037 17.542485 -5.723947 -12.930208 10.824664 26.057628 8.641510 0.000002 0.000001 -0.000000 13.985164 1.290469 -55.047370 0.371031 1.161909 -65.457528 -0.000000 -0.000000 -0.000002 7.465931 1.197220 -63.754714 1.806400 1.476401 -64.514231 0.000000 0.000000 -0.000003 8.571878 2.201288 -75.001269 -0.208879 1.005541 -57.694533 0.000000 0.000001 -0.000003 9.971813 13.637658 -84.708382 0.873425 0.061166 -64.420773 0.000000 -0.000000 -0.000001 -0.000001 -0.000002 0.000001 4.851983 7.811876 5.709651 -0.844153 -2.132284 61.674607 11.420388 18.937664 -4.006086 -0.452335 6.527041 5.826807 15.788501 -2.734485 -17.205882 -2.106387 -31.245650 7.373548 -0.000000 0.000000 -0.000000 2.374293 -3.644134 8.645110 -2.147461 -2.473277 18.952855 0.000001 0.000000 0.000000 -1.989615 -5.689720 13.819820 0.282330 -5.090146 27.267968 -0.000000 0.000000 -0.000002 -3.249572 -8.547451 11.930071 4.042383 -4.063379 33.543226 -0.000001 -0.000000 -0.000002 -6.473360 -11.335257 23.420391 10.719493 -2.558896 35.102726 -0.000001 0.000001 0.000001 -0.000000 -0.000000 -0.000001 -0.000000 -0.000003 -0.000000 -0.000000 0.000000 -0.000000 -0.000000 -0.000003 0.000000 -0.000000 -0.000003 0.000000 -0.000000 -0.000003 -0.000000 -0.000000 0.000000 -0.000000 -0.000000 -0.000003 0.000000 -0.000000 -0.000003 0.000000 -0.000000 -0.000003 -0.000000 -0.000000 0.000000 -0.000000 -0.000000 0.000003 -0.000000 -0.000000 0.000003 -0.000000 -0.000000 0.000003 -0.000000 
0.093908 70.276100 -0.047078 3.001454 -28.708262 1.127320 0.000000 -0.000002 0.000000 -15.746617 18.697141 9.508022 17.839242 14.333167 -0.822439 -4.618190 -5.463488 -5.118601 0.000000 -0.000000 -0.000000 0.000000 0.000001 0.000000 -6.002642 -1.990785 -9.116026 11.615249 9.304534 0.705997 -9.076790 -0.988727 7.103623 -0.000000 -0.000002 0.000000 0.000000 -0.000001 -0.000000 7.765499 -0.355351 -2.667847 1.051471 -0.856362 2.346641 1.060734 -0.578901 2.409569 -4.035129 18.103343 -6.236031 -6.261312 13.166571 0.315301 -0.000000 0.000000 -0.000000 -0.000000 0.000000 -0.000000 -0.000000 0.000000 -0.000000 -0.000000 0.000000 -0.000000 -0.000000 0.000000 -0.000000 -0.000000 0.000000 -0.000000 -0.000000 0.000000 -0.000000 -0.000000 0.000000 -0.000000 -0.000000 0.000000 -0.000000 -0.095207 -7.833560 -0.261094 -55.289060 1.044011 -40.597541 10.451561 -65.790417 11.849377 -50.183811 12.334685 4.429928 17.542465 -5.723957 -12.930202 10.824678 26.057669 8.641511 0.000000 -0.000000 -0.000001 13.985150 1.290591 -55.047336 0.371053 1.161934 -65.457466 0.000001 0.000001 0.000002 7.465883 1.197205 -63.754707 1.806377 1.476429 -64.514190 -0.000000 -0.000000 0.000004 8.571850 2.201270 -75.001317 -0.208866 1.005574 -57.694594 -0.000002 -0.000001 -0.000002 9.971806 13.637636 -84.708430 0.873417 0.061183 -64.421586 0.000001 -0.000001 -0.000003 0.000004 -0.000001 -0.000000 4.852105 7.875475 5.834435 -0.731467 -2.101495 61.529964 11.542482 18.958853 -4.028549 -0.441494 6.372632 5.804650 15.788501 -2.734486 -17.205882 -2.008231 -31.386389 7.386911 0.000000 -0.000001 -0.000000 2.373890 -3.647533 8.813120 -2.147528 -2.473415 19.250793 -0.000001 0.000000 0.000000 -1.988695 -5.692533 13.987947 0.282497 -5.092160 27.566022 0.000000 0.000000 -0.000001 -3.250503 -8.551001 12.097790 4.041627 -4.063510 33.840876 -0.000001 -0.000000 -0.000001 -6.473473 -11.337015 23.588137 10.719572 -2.559005 35.400734 -0.000000 0.000000 -0.000001 0.000000 -0.000000 -0.000003 0.000000 0.000002 -0.000000 0.000001 -0.000002 0.000000 0.000000 0.000002 0.000000 0.000000 0.000002 0.000000 0.000000 0.000002 -0.000000 0.000001 -0.000002 0.000000 0.000000 0.000002 0.000000 0.000000 0.000002 0.000000 0.000000 0.000002 -0.000000 0.000001 -0.000002 0.000000 0.000000 -0.000002 0.000000 0.000000 -0.000002 0.000000 0.000000 -0.000002 0.000000 
0.171807 70.242889 -0.116569 3.034728 -28.498322 1.069222 -0.000000 0.000000 0.000000 -16.169896 18.715031 9.656564 18.271448 13.473463 -0.890410 -4.740139 -4.903208 -4.947865 0.000000 0.000000 0.000000 0.000001 -0.000001 -0.000000 -6.219152 -2.099843 -9.016701 11.918631 9.012793 0.589126 -9.186055 -0.957892 7.186855 0.000000 0.000001 -0.000000 -0.000000 0.000001 -0.000001 7.720184 -0.333251 -2.631309 1.037691 -0.825889 2.332715 1.046382 -0.551330 2.393830 -4.158291 18.277619 -6.094377 -6.212597 13.365644 0.304792 0.000000 0.000000 -0.000000 0.000000 0.000000 -0.000000 0.000000 0.000000 -0.000000 0.000000 0.000000 -0.000000 0.000000 0.000000 0.000000 0.000000 0.000000 -0.000000 0.000000 0.000000 0.000000 0.000000 0.000000 -0.000000 0.000000 0.000000 -0.000000 -0.122212 -7.332432 -0.371027 -55.212958 1.531652 -40.105600 9.829900 -65.922609 11.210563 -50.174566 12.301544 4.331356 17.542467 -5.723947 -12.930229 10.824830 26.058102 8.641538 0.000001 0.000001 -0.000000 13.985218 1.291142 -55.047090 0.371033 1.161923 -65.456988 0.000000 -0.000000 0.000001 7.465676 1.197335 -63.754516 1.806367 1.476425 -64.513964 0.000001 -0.000001 -0.000001 8.571847 2.201169 -75.001611 -0.208895 1.005582 -57.694902 0.000001 0.000001 -0.000001 9.972045 13.637653 -84.708675 0.873449 0.061190 -64.423082 0.000000 -0.000001 0.000003 0.000004 -0.000001 -0.000000 4.844672 7.972245 5.880411 -0.550625 -2.122583 61.472830 11.675103 19.081204 -4.071063 -0.420796 6.034998 5.735729 15.788503 -2.734484 -17.205882 -1.904618 -31.534567 7.401417 -0.000000 -0.000001 0.000001 2.373492 -3.651114 8.990272 -2.147581 -2.473553 19.564582 -0.000000 0.000001 0.000000 -1.987686 -5.695490 14.164817 0.282660 -5.094232 27.879649 0.000000 0.000000 -0.000001 -3.251462 -8.554740 12.274405 4.040894 -4.063630 34.154679 -0.000000 -0.000001 0.000003 -6.473501 -11.338852 23.764962 10.719652 -2.559127 35.714352 -0.000001 -0.000000 0.000004 0.000000 -0.000000 0.000002 -0.000000 0.000001 -0.000000 0.000001 -0.000001 0.000000 -0.000000 0.000001 -0.000000 -0.000000 0.000001 -0.000000 -0.000000 0.000001 -0.000000 0.000001 -0.000001 0.000001 -0.000000 0.000001 -0.000000 -0.000000 0.000001 -0.000000 -0.000000 0.000001 -0.000000 0.000001 -0.000001 0.000001 -0.000000 0.000000 0.000000 -0.000000 0.000000 0.000000 -0.000000 0.000000 0.000000 
0.253996 70.208000 -0.178643 3.072656 -28.259252 1.004079 -0.000000 -0.000000 -0.000000 -16.617821 18.753657 9.779863 18.729168 13.514209 -0.885426 -4.883824 -5.279764 -4.882884 0.000000 -0.000000 -0.000000 -0.000001 -0.000000 -0.000000 -6.417678 -2.241464 -8.903758 12.197735 8.690718 0.450052 -9.288780 -0.920232 7.300620 0.000000 0.000002 -0.000000 0.000000 -0.000000 -0.000000 7.669800 -0.302238 -2.578870 1.024542 -0.785725 2.316041 1.032500 -0.513466 2.374547 -4.234204 18.653814 -6.061266 -6.174073 13.712727 0.322351 -0.000000 -0.000000 0.000000 -0.000000 -0.000000 0.000000 -0.000000 -0.000000 0.000000 -0.000000 -0.000000 0.000000 -0.000000 -0.000000 0.000000 -0.000000 -0.000000 0.000000 -0.000000 -0.000000 0.000000 -0.000000 -0.000000 0.000000 -0.000000 -0.000000 0.000000 -0.121053 -6.796881 -0.488152 -55.142962 2.029469 -39.651721 9.135509 -66.083808 10.497985 -50.169222 12.261294 4.242487 17.542501 -5.723954 -12.930206 10.825055 26.058736 8.641568 0.000001 0.000001 -0.000000 13.985284 1.291910 -55.046731 0.371046 1.161900 -65.456435 0.000004 -0.000000 -0.000002 7.465427 1.197513 -63.754297 1.806397 1.476416 -64.513760 0.000002 0.000000 0.000002 8.571866 2.201054 -75.001932 -0.208873 1.005581 -57.695250 -0.000000 0.000001 -0.000002 9.972357 13.637642 -84.708942 0.873466 0.061214 -64.424858 -0.000001 -0.000001 -0.000003 0.000000 -0.000000 -0.000001 4.835496 8.084645 5.913529 -0.348448 -2.133828 61.427108 11.793706 19.189416 -4.098414 -0.394889 5.634961 5.628119 15.788501 -2.734485 -17.205882 -1.796519 -31.689079 7.416669 0.000000 -0.000001 0.000001 2.373088 -3.654849 9.174761 -2.147602 -2.473687 19.891512 -0.000001 -0.000000 0.000000 -1.986626 -5.698573 14.349273 0.282814 -5.096317 28.206537 0.000001 -0.000000 0.000001 -3.252444 -8.558643 12.458474 4.040153 -4.063759 34.481657 0.000001 0.000000 -0.000004 -6.473590 -11.340746 23.949201 10.719760 -2.559238 36.041464 0.000000 0.000001 -0.000003 0.000000 0.000000 -0.000002 -0.000001 0.000003 -0.000001 -0.000001 0.000003 -0.000001 -0.000001 0.000003 -0.000000 -0.000001 0.000003 -0.000000 -0.000001 0.000003 -0.000001 -0.000001 0.000003 -0.000001 -0.000001 0.000003 -0.000000 -0.000001 0.000003 -0.000000 -0.000001 0.000003 -0.000001 -0.000001 0.000003 -0.000001 -0.000000 -0.000000 -0.000000 -0.000000 -0.000000 -0.000000 -0.000000 -0.000000 -0.000000 
